# xmcd
#
# Track frame offsets: 
#        150
#        15614
#        17580
#        38795
#        62143
#        86204
#        123251
#        137935
#        163188
#        188309
#        195555
#        218642
#        228176
#
# Disc length: 3493 seconds
#
# Revision: 0
# Processed by: cddbd v1.5.2PL0 Copyright (c) Steve Scherf et al.
# Submitted via: ExactAudioCopyFreeDBPlugin 1.0
#
DISCID=a60da30d
DTITLE=Garcia Jerry, Grisman David, Rice Tony - The Pizza Tapes #3
DYEAR=1993
DGENRE=Acoustic
TTITLE0=Long Black Veil Reprise (run through)
TTITLE1=Long Black Veil Reprise intro
TTITLE2=Long Black Veil Reprise 2
TTITLE3=Amazing Grace (run through)
TTITLE4=Amazing Grace 
TTITLE5=Little Sadie (run through)
TTITLE6=Little Sadie 
TTITLE7=Knockin On Heavens Door (run through)
TTITLE8=Knockin On Heavens Door
TTITLE9=Free Transition
TTITLE10=So What
TTITLE11=Interlude
TTITLE12=House Of The Rising Sun
EXTD=
EXTT0=
EXTT1=
EXTT2=
EXTT3=
EXTT4=
EXTT5=
EXTT6=
EXTT7=
EXTT8=
EXTT9=
EXTT10=
EXTT11=
EXTT12=
PLAYORDER=
